<?xml version="1.0" encoding="UTF-8"?>
<svg id="Layer_1" xmlns="http://www.w3.org/2000/svg" version="1.1" viewBox="0 0 18 4.27">
  <!-- Generator: Adobe Illustrator 30.1.0, SVG Export Plug-In . SVG Version: 2.1.1 Build 136)  -->
  <defs>
    <style>
      .st0 {
        fill: #b06628;
      }

      .st1 {
        fill: #3e3024;
      }
    </style>
  </defs>
  <path class="st1" d="M1.44,1.99h0c-.16-.17-.29-.28-.39-.34l-.25.35v.02c.05.03.18.12.39.29.13-.11.21-.22.25-.32Z"/>
  <path class="st1" d="M1.99,1.36h-.01c-.1.2-.19.39-.26.55v.07c.21.47.31.78.31.93,0,.04-.02.08-.04.12-.2.26-.5.37-.92.34s-.62-.25-.6-.65c0-.13.05-.29.15-.49l-.16-.08c-.17.31-.26.61-.26.88,0,.12.02.22.04.3.13.4.44.6.93.59h.01c.33,0,.64-.14.93-.43.15-.27.22-.52.22-.76,0-.23-.04-.48-.12-.75l-.22-.63Z"/>
  <path class="st1" d="M4.71.29h0c-.04-.12-.12-.18-.22-.18-.01,0-.03.01-.06.01-.3.1-.57.32-.8.66h0c.4-.36.7-.55.91-.55.05,0,.11.02.17.06Z"/>
  <path class="st1" d="M5.89,1.53c-.07,0-.64.03-1.71.09-.04,0-.07,0-.08-.01-.22,0-.36-.04-.43-.13v-.03s.02-.06.06-.12c.3-.24.53-.36.71-.36h.04s.09.03.13.09c.07,0,.13-.13.18-.39v-.07c0-.11-.06-.18-.19-.19h-.07c-.18,0-.45.16-.8.47-.27.33-.4.61-.4.84l.03.16c.1.19.3.28.6.28h.24c.9-.06,1.41-.09,1.53-.09.2,0,.3.02.31.04.11,0,.22.08.32.24-1.53.08-2.58.12-3.16.12v-.02h-.04c-.13,0-.22-.03-.28-.08-.06-.06-.09-.15-.09-.29,0-.07,0-.17,0-.31,0-.14,0-.26,0-.36,0-.24,0-.45,0-.62,0-.24-.02-.45-.04-.63l-.04-.02c-.12.1-.23.21-.32.31.03.3.06.66.08,1.05,0,.15.01.31.02.45,0,.13,0,.23,0,.32,0,.42.18.65.51.71.02.02.05.03.08.03h.26c.27,0,.44,0,.5-.01,1.69-.1,2.61-.16,2.74-.16.13-.29.19-.48.19-.57v-.06c0-.06-.01-.14-.04-.22-.15-.31-.43-.46-.86-.46Z"/>
  <path class="st0" d="M9.92,1.27h0c-.16-.17-.29-.28-.39-.34l-.25.35v.02c.05.03.18.12.39.29.13-.11.21-.22.25-.32Z"/>
  <path class="st0" d="M14.12,3.43s-.12.13-.28.34l.39.36h.01c.07-.09.16-.2.26-.34-.15-.15-.27-.27-.38-.36Z"/>
  <path class="st0" d="M13.18,3.8v.02c.06.03.19.15.39.34.13-.14.21-.25.27-.34-.17-.18-.3-.3-.39-.36,0,0-.09.12-.27.34Z"/>
  <path class="st1" d="M13.24,2.99h.76c.12,0,.22.02.29.07s.11.13.11.26h.01c.05-.1.08-.22.08-.36s-.02-.26-.05-.36-.13-.15-.29-.15h-1.08s0,0,0,0h0s-.04-.01-.04-.01c-.31,0-.46-.1-.46-.29,0-.08.03-.2.08-.36l-.02-.02c-.06.03-.13.07-.22.14,0,.03-.02.06-.03.11l-.03.1c-.03.08-.06.14-.09.18-.07.1-.17.14-.28.14-.09,0-.14-.06-.14-.18,0-.05.04-.18.13-.38l-.02-.03c-.08.04-.16.07-.23.11-.01.03-.03.06-.05.1l-.02.05-.02.04c-.03.07-.07.13-.11.17-.08.07-.17.11-.27.11s-.15-.05-.15-.14c0-.08.06-.2.17-.36l-.03-.03c-.08.03-.16.07-.24.11l-.03.05-.03.04s-.04.06-.06.08c-.04.06-.08.1-.12.12-.11.08-.28.13-.5.13h-.07c-.11,0-.21-.03-.3-.08-.09-.06-.14-.16-.14-.29,0-.05.02-.13.05-.26l-.02-.02s-.08.05-.12.08l-.05.04-.05.03s-.02.06-.04.1l-.02.06-.02.05c-.04.09-.08.15-.15.19-.1.06-.22.09-.36.09,0,0,0-.01-.01-.01h-.06c-.16,0-.28-.09-.36-.28-.11-.56-.19-.94-.25-1.14-.01-.13-.04-.2-.09-.2-.05.06-.14.18-.27.38.16.53.25.85.25.96,0,.03-.02.07-.07.12-.18.1-.34.16-.48.17-.18,0-.27,0-.29,0-.2.1-.3.31-.31.61.09-.04.29-.05.61-.04.18-.02.34-.08.48-.18.12-.12.18-.22.18-.3h.01s.01.07.04.13c.11.23.3.35.57.35h.02s0,0,0,0c.23,0,.42-.1.58-.3h0c.12.2.33.31.64.31h.08c.21,0,.4-.07.58-.21.04.14.14.21.3.21s.3-.08.46-.24h.01c.05.16.15.24.31.24.17,0,.32-.09.47-.26h.01c.09.17.3.26.64.26h.04v-.04s.1.03.17.04Z"/>
  <path class="st0" d="M17.69,1.8h0c-.16-.17-.29-.28-.39-.34l-.25.35v.02c.05.03.18.12.39.29.13-.11.21-.22.25-.32Z"/>
  <path class="st1" d="M17.75,2.59c-.03-.1-.13-.15-.29-.15h-.95s-.19,0-.19,0c-.12-.61-.33-.92-.63-.92-.16,0-.31.08-.45.25-.14.17-.21.35-.21.56,0,.45.3.67.89.67h.08c-.05.11-.16.23-.32.35-.25.19-.48.29-.7.29-.11,0-.22-.03-.34-.08l-.06.15c.3.21.58.31.82.31.21,0,.4-.11.57-.32.16-.19.27-.43.33-.7h.21s.02,0,.03,0h.76c.12,0,.22.02.29.07s.11.13.11.26h.01c.05-.1.08-.22.08-.36s-.02-.26-.05-.36ZM15.94,2.45c-.19,0-.34-.02-.46-.07-.13-.05-.19-.12-.19-.2,0-.04.03-.09.08-.13.06-.05.13-.08.21-.08.21,0,.36.15.48.46-.03,0-.07,0-.11,0Z"/>
</svg>